<svg width="32" height="32" viewBox="0 0 32 32" fill="none" xmlns="http://www.w3.org/2000/svg">
  <defs>
    <!-- Blue gradient for light backgrounds -->
    <linearGradient id="blueGradient" x1="0%" y1="0%" x2="100%" y2="100%">
      <stop offset="0%" style="stop-color:#3B82F6"/>
      <stop offset="100%" style="stop-color:#2563EB"/>
    </linearGradient>
    
    <!-- Lighter gradient for better contrast on dark backgrounds -->
    <linearGradient id="blueGradientLight" x1="0%" y1="0%" x2="100%" y2="100%">
      <stop offset="0%" style="stop-color:#60A5FA"/>
      <stop offset="100%" style="stop-color:#3B82F6"/>
    </linearGradient>
  </defs>
  
  <!-- Cloud shape background -->
  <path d="M8 20c-2.2 0-4-1.8-4-4 0-2.1 1.6-3.8 3.7-4 .9-2.8 3.5-4.8 6.6-4.8 2.6 0 4.9 1.5 6.1 3.7 1.8.2 3.2 1.7 3.2 3.5 0 2-1.6 3.6-3.6 3.6H8z" 
        fill="url(#blueGradient)" 
        stroke="none"/>
  
  <!-- Dollar sign -->
  <g transform="translate(16, 16)">
    <!-- Vertical line of dollar sign -->
    <line x1="0" y1="-8" x2="0" y2="8" stroke="white" stroke-width="1.5" stroke-linecap="round"/>
    
    <!-- S curve of dollar sign -->
    <path d="M-3 -4c0-1.5 1.5-2.5 3-2.5s3 1 3 2.5-1.5 2-3 2h-1c-1.5 0-3 .5-3 2s1.5 2.5 3 2.5 3-1 3-2.5" 
          stroke="white" 
          stroke-width="1.5" 
          fill="none" 
          stroke-linecap="round" 
          stroke-linejoin="round"/>
  </g>
</svg>