<?xml version="1.0" encoding="UTF-8"?>
<svg width="512" height="512" viewBox="0 0 512 512" xmlns="http://www.w3.org/2000/svg">
  <defs>
    <!-- Gradients for depth -->
    <linearGradient id="dollarGradient" x1="0%" y1="0%" x2="100%" y2="100%">
      <stop offset="0%" style="stop-color:#FFFFFF;stop-opacity:1" />
      <stop offset="100%" style="stop-color:#E8E8E8;stop-opacity:1" />
    </linearGradient>
    
    <!-- Pattern for Memphis texture -->
    <pattern id="dots" x="0" y="0" width="20" height="20" patternUnits="userSpaceOnUse">
      <circle cx="5" cy="5" r="2" fill="#000000" opacity="0.1"/>
      <circle cx="15" cy="15" r="2" fill="#000000" opacity="0.1"/>
    </pattern>
    
    <!-- Confetti pattern -->
    <pattern id="confetti" x="0" y="0" width="40" height="40" patternUnits="userSpaceOnUse">
      <rect x="5" y="5" width="3" height="8" fill="#FF9FB0" transform="rotate(45 6.5 9)"/>
      <rect x="25" y="15" width="3" height="8" fill="#9FC5FF" transform="rotate(-30 26.5 19)"/>
      <circle cx="15" cy="25" r="2" fill="#B8E6B8"/>
      <rect x="30" y="30" width="3" height="8" fill="#FFE5B4" transform="rotate(60 31.5 34)"/>
    </pattern>
  </defs>
  
  <!-- Background circle - Muted coral pink -->
  <circle cx="256" cy="256" r="240" fill="#FF9FB0" stroke="#000000" stroke-width="8"/>
  
  <!-- Confetti overlay for texture -->
  <circle cx="256" cy="256" r="235" fill="url(#confetti)" opacity="0.3"/>
  
  <!-- Large geometric shapes in background - Muted pastels -->
  <!-- Soft blue triangle -->
  <polygon points="80,120 180,120 130,40" fill="#9FC5FF" stroke="#000000" stroke-width="6"/>
  
  <!-- Muted mint circle with dots -->
  <circle cx="400" cy="120" r="45" fill="#B8E6B8" stroke="#000000" stroke-width="6"/>
  <circle cx="400" cy="120" r="40" fill="url(#dots)"/>
  
  <!-- Soft yellow triangle -->
  <polygon points="420,380 520,380 470,460" fill="#FFE5B4" stroke="#000000" stroke-width="6"/>
  
  <!-- Muted peach rectangle -->
  <rect x="60" y="350" width="80" height="50" fill="#FFCCB3" stroke="#000000" stroke-width="6"/>
  
  <!-- Soft lavender squiggle/wave -->
  <path d="M 400 250 Q 430 230 460 250 Q 490 270 520 250" stroke="#D4B5FF" stroke-width="8" fill="none"/>
  
  <!-- Pale turquoise zigzag -->
  <path d="M 50 200 L 70 180 L 90 200 L 110 180 L 130 200" stroke="#A8E6CF" stroke-width="6" fill="none"/>
  
  <!-- Additional Memphis flourishes - Grid lines -->
  <line x1="150" y1="50" x2="150" y2="150" stroke="#000000" stroke-width="2" opacity="0.2"/>
  <line x1="100" y1="100" x2="200" y2="100" stroke="#000000" stroke-width="2" opacity="0.2"/>
  <line x1="350" y1="350" x2="450" y2="350" stroke="#000000" stroke-width="2" opacity="0.2"/>
  <line x1="400" y1="300" x2="400" y2="400" stroke="#000000" stroke-width="2" opacity="0.2"/>
  
  <!-- Central dollar sign container - darker with subtle gradient -->
  <circle cx="256" cy="256" r="140" fill="#2a2a2a" stroke="#000000" stroke-width="8"/>
  <circle cx="256" cy="256" r="135" fill="#1a1a1a"/>
  
  <!-- LARGER Dollar sign - bold and prominent -->
  <!-- Vertical lines -->
  <rect x="240" y="160" width="12" height="192" fill="url(#dollarGradient)" stroke="#000000" stroke-width="3"/>
  <rect x="260" y="160" width="12" height="192" fill="url(#dollarGradient)" stroke="#000000" stroke-width="3"/>
  
  <!-- S curve - much larger -->
  <path d="M 200 210 Q 200 180 230 180 L 290 180 Q 320 180 320 210 Q 320 235 290 235 L 230 235 Q 200 235 200 260 Q 200 285 230 285 L 290 285 Q 320 285 320 310 Q 320 340 290 340 L 230 340" 
        stroke="url(#dollarGradient)" stroke-width="28" fill="none" stroke-linecap="round"/>
  
  <!-- Memphis decorative elements around dollar sign -->
  <!-- Triangular confetti -->
  <polygon points="160,190 175,190 167,170" fill="#FFE5B4" stroke="#000000" stroke-width="3"/>
  <polygon points="340,320 355,320 347,340" fill="#9FC5FF" stroke="#000000" stroke-width="3"/>
  <polygon points="165,320 180,320 172,335" fill="#D4B5FF" stroke="#000000" stroke-width="3"/>
  <polygon points="335,185 350,185 342,170" fill="#B8E6B8" stroke="#000000" stroke-width="3"/>
  
  <!-- Circles with cross pattern -->
  <circle cx="165" cy="260" r="18" fill="#B8E6B8" stroke="#000000" stroke-width="3"/>
  <line x1="157" y1="260" x2="173" y2="260" stroke="#000000" stroke-width="2"/>
  <line x1="165" y1="252" x2="165" y2="268" stroke="#000000" stroke-width="2"/>
  
  <circle cx="345" cy="250" r="15" fill="#FFCCB3" stroke="#000000" stroke-width="3"/>
  <line x1="338" y1="250" x2="352" y2="250" stroke="#000000" stroke-width="2"/>
  <line x1="345" y1="243" x2="345" y2="257" stroke="#000000" stroke-width="2"/>
  
  <!-- Memphis dash patterns -->
  <rect x="190" y="250" width="4" height="12" fill="#FF9FB0"/>
  <rect x="198" y="255" width="4" height="12" fill="#9FC5FF"/>
  <rect x="206" y="250" width="4" height="12" fill="#FFE5B4"/>
  
  <rect x="302" y="248" width="4" height="12" fill="#B8E6B8"/>
  <rect x="310" y="253" width="4" height="12" fill="#FFCCB3"/>
  <rect x="318" y="248" width="4" height="12" fill="#D4B5FF"/>
  
  <!-- Additional Memphis geometric shapes for energy -->
  <!-- Rotated squares -->
  <rect x="380" y="60" width="35" height="35" fill="#D4B5FF" stroke="#000000" stroke-width="4" transform="rotate(45 397.5 77.5)"/>
  <rect x="90" y="420" width="30" height="30" fill="#FFE5B4" stroke="#000000" stroke-width="4" transform="rotate(30 105 435)"/>
  
  <!-- Half circles -->
  <path d="M 420 180 A 20 20 0 0 1 460 180" fill="#B8E6B8" stroke="#000000" stroke-width="3"/>
  <path d="M 50 380 A 20 20 0 0 0 90 380" fill="#9FC5FF" stroke="#000000" stroke-width="3"/>
  
  <!-- Memphis squiggles and waves -->
  <path d="M 80 300 Q 100 285 120 300 Q 140 315 160 300" stroke="#FFE5B4" stroke-width="5" fill="none"/>
  <path d="M 380 450 Q 400 435 420 450 Q 440 465 460 450" stroke="#A8E6CF" stroke-width="5" fill="none"/>
  <path d="M 30 150 Q 50 135 70 150 Q 90 165 110 150" stroke="#D4B5FF" stroke-width="4" fill="none"/>
  
  <!-- Scattered dots for texture -->
  <circle cx="120" cy="180" r="3" fill="#000000" opacity="0.2"/>
  <circle cx="135" cy="195" r="3" fill="#000000" opacity="0.2"/>
  <circle cx="150" cy="180" r="3" fill="#000000" opacity="0.2"/>
  
  <circle cx="370" cy="280" r="3" fill="#000000" opacity="0.2"/>
  <circle cx="385" cy="295" r="3" fill="#000000" opacity="0.2"/>
  <circle cx="400" cy="280" r="3" fill="#000000" opacity="0.2"/>
  
  <!-- Cross-hatch pattern elements -->
  <line x1="440" y1="100" x2="460" y2="120" stroke="#000000" stroke-width="2" opacity="0.15"/>
  <line x1="460" y1="100" x2="440" y2="120" stroke="#000000" stroke-width="2" opacity="0.15"/>
  
  <line x1="70" y1="270" x2="90" y2="290" stroke="#000000" stroke-width="2" opacity="0.15"/>
  <line x1="90" y1="270" x2="70" y2="290" stroke="#000000" stroke-width="2" opacity="0.15"/>
</svg>